<?xml version="1.0" standalone="no"?>
<!DOCTYPE svg PUBLIC "-//W3C//DTD SVG 20010904//EN"
 "http://www.w3.org/TR/2001/REC-SVG-20010904/DTD/svg10.dtd">
<svg version="1.0" xmlns="http://www.w3.org/2000/svg"
 width="512.000000pt" height="512.000000pt" viewBox="0 0 512.000000 512.000000"
 preserveAspectRatio="xMidYMid meet">
<metadata>
Created by potrace 1.14, written by Peter Selinger 2001-2017
</metadata>
<g transform="translate(0.000000,512.000000) scale(0.100000,-0.100000)"
fill="#000000" stroke="none">
<path d="M2168 5035 c-2 -1 -37 -5 -78 -9 -361 -31 -772 -163 -1090 -349 -96
-57 -119 -80 -120 -120 0 -41 37 -70 127 -97 171 -52 227 -93 252 -182 13 -47
12 -54 -19 -178 -7 -25 -10 -78 -7 -118 4 -69 10 -84 119 -305 96 -194 113
-233 99 -239 -9 -3 -38 -14 -65 -23 -63 -23 -120 -75 -154 -139 -22 -43 -26
-64 -26 -131 1 -137 22 -166 253 -350 155 -123 158 -127 175 -183 27 -86 64
-177 112 -276 24 -49 44 -91 44 -92 0 -2 -172 -4 -382 -6 l-383 -3 -65 -31
c-36 -17 -82 -45 -102 -63 -50 -44 -103 -126 -121 -189 -19 -64 -17 -29 -17
-247 l0 -185 -60 -30 c-305 -154 -512 -435 -566 -766 -13 -86 -20 -542 -8
-589 15 -59 -154 -55 2474 -55 2587 0 2455 -3 2474 47 4 10 6 139 5 288 -2
258 -3 275 -30 384 -74 300 -267 548 -530 681 l-77 39 -3 209 -4 208 -37 76
c-45 91 -103 147 -196 191 l-67 32 -382 3 c-211 2 -383 5 -383 6 0 4 68 144
82 171 6 11 30 73 53 138 l42 118 144 115 c79 63 160 131 180 150 84 82 109
207 64 318 -13 32 -38 74 -55 91 -39 40 -112 80 -164 89 -33 6 -37 10 -33 29
3 12 46 135 97 272 50 138 98 283 106 323 67 351 -103 708 -419 882 -54 30
-147 66 -192 74 -11 2 -40 9 -65 15 -39 9 -992 15 -1002 6z m1007 -171 c196
-44 365 -176 457 -358 79 -156 88 -352 25 -531 -51 -144 -65 -181 -67 -170 -1
6 -4 24 -6 40 -7 50 -44 156 -79 227 -57 113 -250 394 -277 401 -44 12 -56 6
-185 -96 -71 -57 -152 -116 -179 -131 -82 -46 -188 -77 -283 -82 -238 -12
-333 -41 -516 -157 -44 -28 -82 -54 -85 -57 -4 -4 -303 -203 -412 -274 l-27
-18 -76 152 c-82 167 -90 205 -60 291 38 106 22 230 -40 324 -43 65 -84 100
-154 133 l-55 25 65 32 c192 93 484 192 644 218 17 3 46 8 65 11 19 3 49 8 65
11 17 3 66 8 110 11 44 4 82 8 84 10 2 2 209 3 460 3 378 0 468 -2 526 -15z
m93 -712 c144 -216 169 -294 171 -544 l2 -167 -381 -3 -381 -3 -19 -25 c-14
-17 -20 -41 -20 -77 l0 -53 -79 0 -79 0 -4 60 c-7 101 19 95 -418 98 l-380 3
0 58 0 58 264 176 c145 96 286 187 313 200 89 46 163 61 345 72 165 9 327 77
480 199 51 41 96 72 100 69 5 -2 44 -57 86 -121z m-1747 -889 c7 -147 25 -308
36 -326 12 -19 -19 0 -91 56 -87 68 -111 109 -101 171 3 22 14 51 25 64 40 48
129 72 131 35z m321 -135 c4 -168 12 -197 69 -256 54 -56 83 -64 220 -70 167
-6 219 8 281 77 50 56 68 104 68 185 l0 56 80 0 80 0 0 -56 c0 -81 18 -129 68
-185 56 -63 108 -79 252 -79 139 0 193 16 245 72 68 73 70 77 73 251 l4 157
78 0 79 0 -5 -92 c-4 -86 -7 -112 -19 -178 -2 -14 -6 -41 -9 -60 -14 -98 -68
-288 -116 -410 -29 -74 -109 -239 -132 -272 l-19 -28 -578 0 c-451 0 -581 3
-589 13 -12 15 -101 190 -124 243 -96 228 -151 466 -163 712 l-4 72 79 0 78 0
4 -152z m476 11 c-4 -178 -4 -178 -151 -179 -108 0 -150 14 -161 52 -3 13 -6
78 -6 146 l0 122 161 0 161 0 -4 -141z m802 6 c0 -183 -7 -190 -184 -183 -132
4 -130 2 -134 178 l-4 140 161 0 161 0 0 -135z m595 95 c53 -52 57 -139 8
-188 -27 -28 -147 -122 -155 -122 -4 0 -5 6 -2 13 9 24 30 221 29 281 l0 58
43 -5 c32 -3 53 -14 77 -37z m-2995 -2450 l0 -550 -241 0 -240 0 2 204 c2 228
13 311 60 431 73 185 189 326 359 435 25 16 48 29 53 29 4 1 7 -246 7 -549z
m3763 504 c154 -100 294 -280 349 -449 35 -108 40 -149 45 -372 l5 -233 -241
0 -241 0 0 550 c0 303 3 550 6 550 3 0 38 -21 77 -46z m-1824 -372 c137 -111
9 -334 -156 -271 -128 48 -134 239 -8 296 46 21 121 10 164 -25z"/>
</g>
</svg>
